<svg width="185" height="59" viewBox="0 0 185 59" fill="none" xmlns="http://www.w3.org/2000/svg">
<g clip-path="url(#clip0_806_188)">
<path d="M50.3758 15.3735L45.4548 2.62695H37.7588L34.2808 27.1025H41.9398L43.0683 19.1475L43.6973 14.7445L48.7108 27.1025H56.3698L59.8663 2.62695H52.1888L51.1528 9.97145L50.3758 15.3735Z" fill="#353750"/>
<path d="M58.8672 27.1025H73.6857L74.6477 20.424H67.8952L68.2282 18.056H74.4072L75.3137 11.692H69.1347L69.4677 9.32395H76.2202L77.1637 2.62695H62.3452L58.8672 27.1025Z" fill="#353750"/>
<path d="M116.162 27.1025H124.228L125.523 18.056H131.72L132.608 11.692H126.429L126.762 9.32395H133.533L134.477 2.62695H119.658L116.162 27.1025Z" fill="#353750"/>
<path d="M133.274 27.1025H141.34L144.818 2.62695H136.77L133.274 27.1025Z" fill="#353750"/>
<path d="M158.212 2.62695H149.961L142.913 27.1025H150.664L153.939 14.726L155.419 27.1025H160.802L165.538 14.726V27.1025H172.753V2.62695H164.299L159.655 14.7445L158.212 2.62695Z" fill="#353750"/>
<path d="M175.195 2.62695V3.51495H176.601V7.25195H177.711V3.51495H179.117V2.62695H175.195ZM183.372 2.62695L182.336 5.36495L181.3 2.62695H179.672V7.25195H180.671V3.51495L182.04 7.25195H182.632L184.001 3.51495V7.25195H185V2.62695H183.372Z" fill="#353750"/>
<path d="M105.191 10.36H105.468L105.838 17.723H102.249L105.191 10.36V10.36ZM106.301 27.121H114.385L111.111 2.64551H102.249L90.0024 27.121H98.4754L99.6779 24.087H106.134L106.282 27.121H106.301Z" fill="#353750"/>
<path d="M78.3105 9.43495L82.732 9.32395L80.216 27.1025H88.2265L90.761 9.32395L95.1455 9.43495L96.126 2.62695H79.2725L78.3105 9.43495Z" fill="#353750"/>
<path d="M23.9204 0L20.4609 7.918C19.8504 9.361 19.2399 10.7855 18.6109 12.2285C17.7044 14.3005 16.9644 16.3725 17.4084 18.6665C17.7044 20.2205 18.4814 21.4785 19.7949 22.6625C21.4044 24.1425 23.9019 24.124 23.9204 24.124C23.9204 24.124 26.4179 24.124 28.0459 22.6625C29.3594 21.46 30.1179 20.2205 30.4324 18.6665C30.8764 16.3725 30.1364 14.3005 29.2299 12.2285C28.6009 10.804 27.9904 9.361 27.3799 7.918L23.9204 0Z" fill="#353750"/>
<path d="M10.323 14.2266L4.95804 26.5291C4.01454 28.7676 3.05254 30.9876 2.09054 33.2076C0.684544 36.4266 -0.480956 39.6456 0.222044 43.2161C0.703044 45.6026 1.86854 47.5636 3.92204 49.4321C6.43804 51.7261 10.3045 51.7076 10.323 51.7076C10.323 51.7076 14.208 51.7261 16.724 49.4321C18.759 47.5636 19.943 45.6211 20.424 43.2161C21.127 39.6456 19.9615 36.4266 18.5555 33.2076C17.5935 30.9876 16.6315 28.7491 15.688 26.5291L10.323 14.2266V14.2266Z" fill="#353750"/>
<path d="M42.7536 57.9237C42.6241 57.9237 42.5316 57.9052 42.4391 57.8497C42.3466 57.7942 42.3096 57.7202 42.3096 57.5907C42.3096 57.5722 42.3096 57.5537 42.3096 57.5167C42.3096 57.4797 42.3281 57.4427 42.3651 57.3687L46.0836 48.4147C46.1761 48.1742 46.3796 48.0447 46.6756 48.0447C46.8236 48.0447 46.9161 48.0817 47.0086 48.1372C47.0826 48.1927 47.1381 48.2667 47.1751 48.3407L50.9121 57.3132C50.9491 57.4427 50.9861 57.5167 50.9861 57.5722C50.9861 57.7017 50.9306 57.7757 50.8196 57.8312C50.7086 57.8867 50.6161 57.9237 50.5051 57.9237C50.3941 57.9237 50.3201 57.9052 50.2831 57.8497C50.2276 57.7942 50.1906 57.7387 50.1721 57.6832L49.0251 54.9637H44.2706L43.1051 57.7017C43.0311 57.8497 42.9201 57.9422 42.7721 57.9422L42.7536 57.9237ZM46.6386 48.9882L44.5851 54.2237H48.6921L46.6386 48.9882Z" fill="#353750"/>
<path d="M53.1138 57.5167C53.1138 57.6832 53.0768 57.7757 53.0028 57.8312C52.9288 57.8867 52.8363 57.9237 52.7068 57.9237C52.5773 57.9237 52.4848 57.8867 52.4108 57.8312C52.3368 57.7757 52.2998 57.6647 52.2998 57.5167V51.1157C52.2998 50.9677 52.3368 50.8752 52.4108 50.8197C52.4848 50.7642 52.5773 50.7457 52.6883 50.7457C52.8178 50.7457 52.9103 50.7642 52.9843 50.8197C53.0583 50.8752 53.0953 50.9677 53.0953 51.1157V52.3922C53.1508 52.2627 53.2433 52.1147 53.3543 51.9112C53.4653 51.7077 53.6503 51.5042 53.8538 51.3192C54.0573 51.1342 54.3348 50.9677 54.6493 50.8197C54.9638 50.6717 55.3338 50.6162 55.7593 50.6162C56.4808 50.6162 57.0543 50.8197 57.4983 51.2082C57.9423 51.5967 58.1643 52.2257 58.1643 53.0582V57.6092C58.1643 57.8312 58.0348 57.9422 57.7943 57.9422C57.4983 57.9422 57.3688 57.8312 57.3688 57.6092V53.3727C57.3688 52.7437 57.2393 52.2627 56.9803 51.9297C56.7213 51.5967 56.2773 51.4302 55.6113 51.4302C55.1673 51.4302 54.7973 51.5227 54.4828 51.7077C54.1683 51.8927 53.9093 52.1332 53.7058 52.4292C53.5023 52.7252 53.3543 53.0582 53.2618 53.4097C53.1693 53.7797 53.1138 54.1312 53.1138 54.4827V57.5352V57.5167Z" fill="#353750"/>
<path d="M72.4647 52.9841C72.4647 53.7796 72.3537 54.4826 72.1317 55.1116C71.9097 55.7406 71.5952 56.2771 71.2067 56.7211C70.7997 57.1651 70.3372 57.4981 69.7637 57.7386C69.2087 57.9791 68.5797 58.0901 67.9137 58.0901C67.2477 58.0901 66.6187 57.9791 66.0452 57.7386C65.4902 57.4981 65.0092 57.1651 64.6022 56.7211C64.1952 56.2771 63.8992 55.7406 63.6772 55.1116C63.4552 54.4826 63.3442 53.7796 63.3442 52.9841C63.3442 52.1886 63.4552 51.4856 63.6772 50.8751C63.8992 50.2461 64.1952 49.7281 64.6022 49.2841C65.0092 48.8401 65.4902 48.5071 66.0452 48.2851C66.6002 48.0446 67.2292 47.9336 67.9137 47.9336C68.5982 47.9336 69.2087 48.0446 69.7637 48.2851C70.3187 48.5256 70.7997 48.8586 71.2067 49.2841C71.6137 49.7281 71.9097 50.2461 72.1317 50.8751C72.3537 51.5041 72.4647 52.2071 72.4647 52.9841ZM64.2877 52.9841C64.2877 53.6316 64.3617 54.2236 64.5282 54.7416C64.6762 55.2596 64.9167 55.7221 65.2127 56.0921C65.5272 56.4621 65.8972 56.7581 66.3412 56.9616C66.7852 57.1651 67.3217 57.2761 67.9137 57.2761C68.5057 57.2761 69.0237 57.1651 69.4862 56.9616C69.9302 56.7581 70.3187 56.4621 70.6147 56.0921C70.9292 55.7221 71.1512 55.2596 71.2992 54.7416C71.4472 54.2236 71.5212 53.6316 71.5212 52.9841C71.5212 52.3366 71.4472 51.7631 71.2992 51.2266C71.1512 50.7086 70.9107 50.2461 70.6147 49.8761C70.3002 49.5061 69.9302 49.2101 69.4862 49.0066C69.0422 48.8031 68.5057 48.6921 67.9137 48.6921C67.3217 48.6921 66.8037 48.8031 66.3412 49.0066C65.8787 49.2101 65.5087 49.5061 65.2127 49.8761C64.8982 50.2461 64.6762 50.6901 64.5282 51.2266C64.3802 51.7446 64.2877 52.3366 64.2877 52.9841Z" fill="#353750"/>
<path d="M74.814 57.5167C74.814 57.6832 74.777 57.7757 74.703 57.8312C74.629 57.8867 74.518 57.9237 74.3885 57.9237C74.2775 57.9237 74.1665 57.8867 74.111 57.8312C74.037 57.7757 74 57.6647 74 57.5167V51.1157C74 50.9677 74.037 50.8752 74.0925 50.8197C74.1665 50.7642 74.2405 50.7457 74.3515 50.7457C74.481 50.7457 74.5735 50.7642 74.629 50.8197C74.703 50.8752 74.74 50.9677 74.74 51.1157V52.4292C74.888 52.1147 75.0545 51.8372 75.2395 51.6152C75.443 51.3932 75.6465 51.2082 75.8685 51.0787C76.0905 50.9492 76.294 50.8382 76.516 50.7827C76.738 50.7272 76.923 50.6902 77.108 50.6902C77.293 50.6902 77.441 50.7272 77.5335 50.8012C77.626 50.8752 77.663 50.9862 77.663 51.1527C77.663 51.3192 77.626 51.4302 77.552 51.5042C77.478 51.5782 77.367 51.6152 77.219 51.6152C76.4605 51.6152 75.8685 51.8557 75.443 52.3552C75.0175 52.8547 74.7955 53.5762 74.7955 54.5567V57.5167H74.814Z" fill="#353750"/>
<path d="M79.3096 48.4702C79.3096 48.3037 79.3466 48.2112 79.4021 48.1372C79.4576 48.0632 79.5686 48.0447 79.6981 48.0447C79.8276 48.0447 79.9386 48.0817 79.9941 48.1372C80.0496 48.1927 80.1051 48.3037 80.1051 48.4702V51.9667C80.3826 51.5782 80.7156 51.2637 81.1411 51.0047C81.5666 50.7457 82.0846 50.6162 82.7136 50.6162C83.1946 50.6162 83.6016 50.7087 83.9901 50.8937C84.3601 51.0787 84.6746 51.3192 84.9336 51.6522C85.1926 51.9852 85.3776 52.3737 85.5256 52.8177C85.6736 53.2617 85.7291 53.7612 85.7291 54.3162C85.7291 54.8712 85.6551 55.3707 85.5256 55.8147C85.3961 56.2587 85.1926 56.6657 84.9336 56.9987C84.6746 57.3317 84.3416 57.5907 83.9716 57.7757C83.5831 57.9607 83.1576 58.0532 82.6581 58.0532C82.0846 58.0532 81.5666 57.9422 81.1411 57.7202C80.7156 57.4982 80.3641 57.1282 80.1051 56.6287V57.5537C80.1051 57.7017 80.0681 57.7942 79.9941 57.8497C79.9201 57.9052 79.8276 57.9237 79.6981 57.9237C79.5686 57.9237 79.4946 57.9052 79.4206 57.8497C79.3651 57.7942 79.3281 57.7017 79.3281 57.5537V48.4887L79.3096 48.4702ZM84.8226 54.3532C84.8226 53.9092 84.7671 53.5022 84.6746 53.1322C84.5821 52.7622 84.4341 52.4477 84.2306 52.1887C84.0271 51.9297 83.7866 51.7262 83.5091 51.5782C83.2316 51.4302 82.8801 51.3562 82.5101 51.3562C81.7331 51.3562 81.1226 51.6152 80.6971 52.1147C80.2716 52.6142 80.0496 53.3542 80.0496 54.2792C80.0496 54.7232 80.1051 55.1117 80.1976 55.4817C80.3086 55.8517 80.4566 56.1662 80.6601 56.4437C80.8636 56.7212 81.1226 56.9247 81.4186 57.0727C81.7146 57.2207 82.0661 57.2947 82.4546 57.2947C82.8431 57.2947 83.1761 57.2207 83.4721 57.0727C83.7681 56.9247 84.0271 56.7212 84.2121 56.4622C84.3971 56.2032 84.5636 55.8887 84.6746 55.5372C84.7671 55.1672 84.8226 54.7787 84.8226 54.3347V54.3532Z" fill="#353750"/>
<path d="M87.2275 48.6735C87.2275 48.47 87.283 48.322 87.394 48.211C87.505 48.1 87.6345 48.063 87.801 48.063C87.9675 48.063 88.097 48.1185 88.208 48.211C88.319 48.3035 88.3745 48.47 88.3745 48.6735C88.3745 48.877 88.319 49.025 88.208 49.1175C88.097 49.21 87.9675 49.2655 87.801 49.2655C87.6345 49.2655 87.505 49.21 87.394 49.1175C87.283 49.0065 87.2275 48.8585 87.2275 48.6735ZM87.4125 51.1525C87.4125 50.986 87.4495 50.8935 87.505 50.838C87.5605 50.7825 87.6715 50.764 87.801 50.764C87.9305 50.764 88.023 50.7825 88.097 50.838C88.171 50.8935 88.208 51.0045 88.208 51.1525V57.5165C88.208 57.683 88.171 57.7755 88.097 57.831C88.023 57.8865 87.9305 57.9235 87.801 57.9235C87.6715 57.9235 87.579 57.8865 87.505 57.831C87.431 57.7755 87.4125 57.6645 87.4125 57.5165V51.1525Z" fill="#353750"/>
<path d="M95.0713 53.5945V53.132C95.0713 52.5215 94.9233 52.059 94.6088 51.763C94.2943 51.467 93.7948 51.319 93.0918 51.319C92.8143 51.319 92.5738 51.356 92.3703 51.4115C92.1668 51.467 91.9818 51.541 91.8338 51.615C91.6858 51.7075 91.5563 51.7815 91.4453 51.8925C91.3343 52.0035 91.2418 52.0775 91.1678 52.17C91.0753 52.2625 91.0013 52.318 90.9458 52.355C90.8903 52.392 90.8348 52.4105 90.7793 52.4105C90.6683 52.4105 90.5943 52.3735 90.5018 52.318C90.4278 52.2625 90.3908 52.17 90.3908 52.0775C90.3908 52.0035 90.4093 51.911 90.4463 51.837C90.4833 51.763 90.5573 51.6705 90.6683 51.578C90.8533 51.393 91.0568 51.245 91.2788 51.1155C91.5008 50.986 91.7228 50.8935 91.9263 50.8195C92.1298 50.7455 92.3518 50.7085 92.5368 50.6715C92.7403 50.6345 92.9068 50.6345 93.0733 50.6345C93.5913 50.6345 94.0168 50.69 94.3683 50.8195C94.7198 50.949 95.0158 51.1155 95.2378 51.3375C95.4598 51.5595 95.6078 51.8 95.7188 52.096C95.8113 52.392 95.8668 52.688 95.8668 53.0025V57.646C95.8668 57.8495 95.7373 57.9605 95.4598 57.9605C95.2748 57.9605 95.1638 57.905 95.1268 57.8125C95.0898 57.72 95.0713 57.5905 95.0713 57.424V56.5545C94.9418 56.7395 94.7938 56.9245 94.6088 57.091C94.4238 57.2575 94.2388 57.4055 94.0168 57.535C93.7948 57.6645 93.5358 57.7755 93.2583 57.8495C92.9808 57.9235 92.6478 57.9605 92.2963 57.9605C91.4823 57.9605 90.8903 57.7755 90.5203 57.424C90.1503 57.0725 89.9653 56.61 89.9653 56.0365C89.9653 55.685 90.0208 55.3705 90.1503 55.093C90.2798 54.8155 90.5018 54.5565 90.7978 54.353C91.1123 54.1495 91.5193 53.983 92.0558 53.8535C92.5738 53.724 93.2398 53.6685 94.0538 53.65H95.0528L95.0713 53.5945ZM94.0353 54.279C93.3693 54.279 92.8328 54.3345 92.4258 54.4085C92.0188 54.4825 91.6858 54.5935 91.4453 54.7415C91.2048 54.8895 91.0383 55.056 90.9643 55.2595C90.8718 55.463 90.8348 55.685 90.8348 55.9255C90.8348 56.3695 90.9643 56.7025 91.2048 56.906C91.4453 57.1095 91.8708 57.2205 92.4628 57.2205C92.7218 57.2205 92.9623 57.1835 93.1843 57.1095C93.4248 57.0355 93.6283 56.943 93.8318 56.832C94.0353 56.721 94.2203 56.5915 94.3683 56.4435C94.5348 56.2955 94.6643 56.129 94.7753 55.9625C94.9603 55.6665 95.0528 55.2965 95.0528 54.871V54.2605H94.0168L94.0353 54.279Z" fill="#353750"/>
<path d="M101.38 48.4702C101.38 48.3037 101.417 48.2112 101.472 48.1372C101.528 48.0632 101.639 48.0447 101.768 48.0447C101.898 48.0447 102.009 48.0817 102.064 48.1372C102.12 48.1927 102.175 48.3037 102.175 48.4702V51.9667C102.453 51.5782 102.786 51.2637 103.211 51.0047C103.637 50.7457 104.155 50.6162 104.784 50.6162C105.265 50.6162 105.672 50.7087 106.06 50.8937C106.43 51.0787 106.745 51.3192 107.004 51.6522C107.263 51.9852 107.448 52.3737 107.596 52.8177C107.744 53.2617 107.799 53.7612 107.799 54.3162C107.799 54.8712 107.725 55.3707 107.596 55.8147C107.466 56.2587 107.263 56.6657 107.004 56.9987C106.745 57.3317 106.412 57.5907 106.042 57.7757C105.653 57.9607 105.228 58.0532 104.728 58.0532C104.155 58.0532 103.637 57.9422 103.211 57.7202C102.786 57.4982 102.434 57.1282 102.175 56.6287V57.5537C102.175 57.7017 102.138 57.7942 102.064 57.8497C101.99 57.9052 101.898 57.9237 101.768 57.9237C101.639 57.9237 101.565 57.9052 101.491 57.8497C101.435 57.7942 101.398 57.7017 101.398 57.5537V48.4887L101.38 48.4702ZM106.893 54.3532C106.893 53.9092 106.837 53.5022 106.745 53.1322C106.652 52.7622 106.504 52.4477 106.301 52.1887C106.097 51.9297 105.857 51.7262 105.579 51.5782C105.302 51.4302 104.95 51.3562 104.58 51.3562C103.803 51.3562 103.193 51.6152 102.767 52.1147C102.342 52.6142 102.12 53.3542 102.12 54.2792C102.12 54.7232 102.175 55.1117 102.268 55.4817C102.379 55.8517 102.527 56.1662 102.73 56.4437C102.934 56.7212 103.193 56.9247 103.489 57.0727C103.785 57.2207 104.136 57.2947 104.525 57.2947C104.913 57.2947 105.246 57.2207 105.542 57.0727C105.838 56.9247 106.097 56.7212 106.282 56.4622C106.467 56.2032 106.634 55.8887 106.745 55.5372C106.837 55.1672 106.893 54.7787 106.893 54.3347V54.3532Z" fill="#353750"/>
<path d="M114.533 51.134C114.533 50.9675 114.57 50.875 114.644 50.8195C114.718 50.764 114.811 50.727 114.94 50.727C115.07 50.727 115.162 50.764 115.236 50.8195C115.31 50.875 115.347 50.986 115.347 51.134V57.535C115.347 57.683 115.31 57.7755 115.236 57.831C115.162 57.8865 115.07 57.905 114.959 57.905C114.829 57.905 114.737 57.8865 114.663 57.831C114.589 57.7755 114.552 57.683 114.552 57.535V56.2955C114.496 56.425 114.404 56.5915 114.293 56.7765C114.182 56.9615 113.997 57.165 113.793 57.35C113.571 57.535 113.312 57.7015 112.998 57.831C112.683 57.9605 112.313 58.0345 111.888 58.0345C111.148 58.0345 110.574 57.831 110.13 57.4425C109.686 57.054 109.483 56.425 109.483 55.5925V51.0415C109.483 50.8195 109.612 50.7085 109.853 50.7085C110.149 50.7085 110.278 50.8195 110.278 51.0415V55.2965C110.278 55.9255 110.408 56.425 110.648 56.758C110.889 57.1095 111.333 57.276 111.999 57.276C112.424 57.276 112.794 57.1835 113.109 56.9985C113.423 56.8135 113.682 56.573 113.886 56.2585C114.089 55.9625 114.256 55.6295 114.348 55.2595C114.459 54.8895 114.496 54.5195 114.496 54.168V51.097L114.533 51.134Z" fill="#353750"/>
<path d="M117.253 57.387C117.105 57.276 117.031 57.1465 117.031 57.017C117.031 56.906 117.087 56.8135 117.179 56.721C117.272 56.6285 117.364 56.573 117.475 56.573C117.549 56.573 117.623 56.5915 117.697 56.647C117.771 56.684 117.864 56.758 117.993 56.832C118.197 56.9615 118.437 57.091 118.715 57.202C119.011 57.313 119.381 57.3685 119.88 57.3685C120.435 57.3685 120.861 57.2575 121.175 57.0355C121.471 56.8135 121.638 56.499 121.638 56.0735C121.638 55.9255 121.638 55.7775 121.601 55.648C121.582 55.5 121.508 55.3705 121.397 55.2595C121.286 55.1485 121.138 55.019 120.916 54.9265C120.694 54.834 120.398 54.7415 120.028 54.6675L119.27 54.5195C118.992 54.464 118.733 54.39 118.493 54.2975C118.252 54.205 118.049 54.094 117.864 53.946C117.679 53.798 117.531 53.613 117.438 53.4095C117.327 53.1875 117.272 52.947 117.272 52.651C117.272 52.022 117.512 51.541 117.975 51.171C118.437 50.801 119.066 50.6345 119.825 50.6345C120.176 50.6345 120.472 50.6715 120.731 50.727C120.99 50.7825 121.231 50.8565 121.416 50.9305C121.601 51.0045 121.767 51.097 121.897 51.171C122.026 51.245 122.119 51.319 122.193 51.3745C122.267 51.4115 122.322 51.4855 122.359 51.541C122.396 51.5965 122.433 51.6705 122.433 51.7445C122.433 51.8555 122.396 51.948 122.322 52.022C122.248 52.096 122.174 52.133 122.082 52.133C121.989 52.133 121.915 52.133 121.86 52.0775C121.786 52.0405 121.712 52.0035 121.638 51.9295C121.434 51.8 121.175 51.6705 120.898 51.541C120.602 51.4115 120.232 51.356 119.788 51.356C119.196 51.356 118.789 51.4855 118.53 51.726C118.271 51.9665 118.141 52.2625 118.141 52.6325C118.141 52.8915 118.234 53.1135 118.419 53.3355C118.604 53.5575 118.974 53.7055 119.529 53.8165L120.472 54.0015C121.12 54.131 121.619 54.353 121.971 54.686C122.322 55.0005 122.489 55.463 122.489 56.0365C122.489 56.684 122.267 57.202 121.823 57.572C121.379 57.942 120.731 58.127 119.88 58.127C119.529 58.127 119.233 58.1085 118.937 58.053C118.659 57.9975 118.4 57.942 118.197 57.868C117.975 57.794 117.808 57.72 117.66 57.646C117.512 57.572 117.401 57.498 117.309 57.4425L117.253 57.387Z" fill="#353750"/>
<path d="M124.005 48.6735C124.005 48.47 124.061 48.322 124.172 48.211C124.283 48.1 124.412 48.063 124.579 48.063C124.745 48.063 124.875 48.1185 124.986 48.211C125.097 48.3035 125.152 48.47 125.152 48.6735C125.152 48.877 125.097 49.025 124.986 49.1175C124.875 49.21 124.745 49.2655 124.579 49.2655C124.412 49.2655 124.283 49.21 124.172 49.1175C124.061 49.0065 124.005 48.8585 124.005 48.6735ZM124.19 51.1525C124.19 50.986 124.227 50.8935 124.283 50.838C124.338 50.7825 124.449 50.764 124.579 50.764C124.708 50.764 124.801 50.7825 124.875 50.838C124.949 50.8935 124.986 51.0045 124.986 51.1525V57.5165C124.986 57.683 124.949 57.7755 124.875 57.831C124.801 57.8865 124.708 57.9235 124.579 57.9235C124.449 57.9235 124.357 57.8865 124.283 57.831C124.209 57.7755 124.19 57.6645 124.19 57.5165V51.1525Z" fill="#353750"/>
<path d="M127.909 57.5167C127.909 57.6832 127.872 57.7757 127.798 57.8312C127.724 57.8867 127.632 57.9237 127.502 57.9237C127.373 57.9237 127.28 57.8867 127.206 57.8312C127.132 57.7757 127.095 57.6647 127.095 57.5167V51.1157C127.095 50.9677 127.132 50.8752 127.206 50.8197C127.28 50.7642 127.373 50.7457 127.484 50.7457C127.613 50.7457 127.706 50.7642 127.78 50.8197C127.854 50.8752 127.891 50.9677 127.891 51.1157V52.3922C127.946 52.2627 128.039 52.1147 128.15 51.9112C128.261 51.7077 128.446 51.5042 128.649 51.3192C128.853 51.1342 129.13 50.9677 129.445 50.8197C129.759 50.6717 130.129 50.6162 130.555 50.6162C131.276 50.6162 131.85 50.8197 132.294 51.2082C132.738 51.5967 132.96 52.2257 132.96 53.0582V57.6092C132.96 57.8312 132.83 57.9422 132.59 57.9422C132.294 57.9422 132.164 57.8312 132.164 57.6092V53.3727C132.164 52.7437 132.035 52.2627 131.776 51.9297C131.517 51.5967 131.073 51.4302 130.407 51.4302C129.963 51.4302 129.593 51.5227 129.278 51.7077C128.964 51.8927 128.705 52.1332 128.501 52.4292C128.298 52.7252 128.15 53.0582 128.057 53.4097C127.965 53.7797 127.909 54.1312 127.909 54.4827V57.5352V57.5167Z" fill="#353750"/>
<path d="M141.063 54.0757C141.063 54.2052 141.026 54.2792 140.952 54.3347C140.878 54.3902 140.785 54.4087 140.674 54.4087H135.476C135.476 55.3337 135.716 56.0552 136.142 56.5732C136.567 57.0912 137.178 57.3317 137.955 57.3317C138.269 57.3317 138.547 57.2947 138.75 57.2207C138.972 57.1467 139.157 57.0542 139.305 56.9617C139.453 56.8507 139.583 56.7397 139.694 56.6102C139.805 56.4807 139.879 56.3697 139.953 56.2587C140.008 56.1847 140.064 56.1292 140.101 56.0922C140.138 56.0552 140.193 56.0367 140.267 56.0367C140.36 56.0367 140.452 56.0737 140.545 56.1107C140.637 56.1662 140.693 56.2402 140.693 56.3512C140.693 56.4622 140.656 56.5917 140.545 56.7212C140.471 56.8507 140.36 56.9987 140.212 57.1467C140.064 57.2947 139.897 57.4427 139.694 57.5722C139.49 57.7017 139.231 57.8127 138.954 57.9052C138.658 57.9977 138.325 58.0532 137.955 58.0532C137.4 58.0532 136.919 57.9607 136.512 57.7757C136.105 57.5907 135.753 57.3317 135.476 57.0172C135.198 56.6842 134.995 56.2957 134.847 55.8332C134.699 55.3707 134.625 54.8712 134.625 54.3162C134.625 53.7612 134.699 53.2802 134.847 52.8177C134.995 52.3552 135.217 51.9667 135.513 51.6337C135.809 51.3007 136.142 51.0602 136.549 50.8752C136.956 50.6902 137.4 50.5977 137.899 50.5977C138.399 50.5977 138.861 50.6902 139.25 50.8752C139.638 51.0602 139.971 51.3007 140.23 51.6152C140.489 51.9297 140.693 52.2997 140.822 52.7067C140.952 53.1137 141.026 53.5762 141.026 54.0572L141.063 54.0757ZM137.918 51.3192C137.529 51.3192 137.196 51.3932 136.919 51.5227C136.623 51.6522 136.382 51.8372 136.197 52.0592C135.994 52.2812 135.846 52.5402 135.735 52.8362C135.624 53.1322 135.55 53.4467 135.531 53.7612H140.267C140.23 53.4282 140.175 53.1322 140.064 52.8362C139.953 52.5402 139.805 52.2812 139.62 52.0592C139.435 51.8372 139.194 51.6522 138.917 51.5227C138.639 51.3932 138.306 51.3192 137.918 51.3192Z" fill="#353750"/>
<path d="M142.469 57.387C142.321 57.276 142.247 57.1465 142.247 57.017C142.247 56.906 142.302 56.8135 142.395 56.721C142.487 56.6285 142.58 56.573 142.691 56.573C142.765 56.573 142.839 56.5915 142.913 56.647C142.987 56.684 143.079 56.758 143.209 56.832C143.412 56.9615 143.653 57.091 143.93 57.202C144.226 57.313 144.596 57.3685 145.096 57.3685C145.651 57.3685 146.076 57.2575 146.391 57.0355C146.687 56.8135 146.853 56.499 146.853 56.0735C146.853 55.9255 146.853 55.7775 146.816 55.648C146.798 55.5 146.724 55.3705 146.613 55.2595C146.502 55.1485 146.354 55.019 146.132 54.9265C145.91 54.834 145.614 54.7415 145.244 54.6675L144.485 54.5195C144.208 54.464 143.949 54.39 143.708 54.2975C143.468 54.205 143.264 54.094 143.079 53.946C142.894 53.798 142.746 53.613 142.654 53.4095C142.543 53.1875 142.487 52.947 142.487 52.651C142.487 52.022 142.728 51.541 143.19 51.171C143.653 50.801 144.282 50.6345 145.04 50.6345C145.392 50.6345 145.688 50.6715 145.947 50.727C146.206 50.7825 146.446 50.8565 146.631 50.9305C146.816 51.0045 146.983 51.097 147.112 51.171C147.242 51.245 147.334 51.319 147.408 51.3745C147.482 51.4115 147.538 51.4855 147.575 51.541C147.612 51.5965 147.649 51.6705 147.649 51.7445C147.649 51.8555 147.612 51.948 147.538 52.022C147.464 52.096 147.39 52.133 147.297 52.133C147.205 52.133 147.131 52.133 147.075 52.0775C147.001 52.0405 146.927 52.0035 146.853 51.9295C146.65 51.8 146.391 51.6705 146.113 51.541C145.817 51.4115 145.447 51.356 145.003 51.356C144.411 51.356 144.004 51.4855 143.745 51.726C143.486 51.9665 143.357 52.2625 143.357 52.6325C143.357 52.8915 143.449 53.1135 143.634 53.3355C143.819 53.5575 144.189 53.7055 144.744 53.8165L145.688 54.0015C146.335 54.131 146.835 54.353 147.186 54.686C147.538 55.0005 147.704 55.463 147.704 56.0365C147.704 56.684 147.482 57.202 147.038 57.572C146.594 57.942 145.947 58.127 145.096 58.127C144.744 58.127 144.448 58.1085 144.152 58.053C143.875 57.9975 143.616 57.942 143.412 57.868C143.19 57.794 143.024 57.72 142.876 57.646C142.728 57.572 142.617 57.498 142.524 57.4425L142.469 57.387Z" fill="#353750"/>
<path d="M149.184 57.387C149.036 57.276 148.962 57.1465 148.962 57.017C148.962 56.906 149.017 56.8135 149.11 56.721C149.202 56.6285 149.295 56.573 149.406 56.573C149.48 56.573 149.554 56.5915 149.628 56.647C149.702 56.684 149.794 56.758 149.924 56.832C150.127 56.9615 150.368 57.091 150.645 57.202C150.941 57.313 151.311 57.3685 151.811 57.3685C152.366 57.3685 152.791 57.2575 153.106 57.0355C153.402 56.8135 153.568 56.499 153.568 56.0735C153.568 55.9255 153.568 55.7775 153.531 55.648C153.513 55.5 153.439 55.3705 153.328 55.2595C153.217 55.1485 153.069 55.019 152.847 54.9265C152.625 54.834 152.329 54.7415 151.959 54.6675L151.2 54.5195C150.923 54.464 150.664 54.39 150.423 54.2975C150.183 54.205 149.979 54.094 149.794 53.946C149.609 53.798 149.461 53.613 149.369 53.4095C149.258 53.1875 149.202 52.947 149.202 52.651C149.202 52.022 149.443 51.541 149.905 51.171C150.368 50.801 150.997 50.6345 151.755 50.6345C152.107 50.6345 152.403 50.6715 152.662 50.727C152.921 50.7825 153.161 50.8565 153.346 50.9305C153.531 51.0045 153.698 51.097 153.827 51.171C153.957 51.245 154.049 51.319 154.123 51.3745C154.197 51.4115 154.253 51.4855 154.29 51.541C154.327 51.5965 154.364 51.6705 154.364 51.7445C154.364 51.8555 154.327 51.948 154.253 52.022C154.179 52.096 154.105 52.133 154.012 52.133C153.92 52.133 153.846 52.133 153.79 52.0775C153.716 52.0405 153.642 52.0035 153.568 51.9295C153.365 51.8 153.106 51.6705 152.828 51.541C152.532 51.4115 152.162 51.356 151.718 51.356C151.126 51.356 150.719 51.4855 150.46 51.726C150.201 51.9665 150.072 52.2625 150.072 52.6325C150.072 52.8915 150.164 53.1135 150.349 53.3355C150.534 53.5575 150.904 53.7055 151.459 53.8165L152.403 54.0015C153.05 54.131 153.55 54.353 153.901 54.686C154.253 55.0005 154.419 55.463 154.419 56.0365C154.419 56.684 154.197 57.202 153.753 57.572C153.309 57.942 152.662 58.127 151.811 58.127C151.459 58.127 151.163 58.1085 150.867 58.053C150.59 57.9975 150.331 57.942 150.127 57.868C149.905 57.794 149.739 57.72 149.591 57.646C149.443 57.572 149.332 57.498 149.239 57.4425L149.184 57.387Z" fill="#353750"/>
<path d="M155.678 57.2391C155.678 57.0541 155.752 56.8876 155.881 56.7396C156.011 56.5916 156.177 56.5176 156.362 56.5176C156.547 56.5176 156.695 56.5916 156.825 56.7396C156.954 56.8876 157.028 57.0541 157.028 57.2391C157.028 57.4241 156.954 57.5906 156.825 57.7201C156.695 57.8496 156.529 57.9236 156.362 57.9236C156.177 57.9236 156.011 57.8496 155.881 57.7201C155.752 57.5906 155.678 57.4241 155.678 57.2391Z" fill="#353750"/>
</g>
<defs>
<clipPath id="clip0_806_188">
<rect width="185" height="58.053" fill="white"/>
</clipPath>
</defs>
</svg>
