<?xml version="1.0" encoding="utf-8"?>
<!-- Generator: Adobe Illustrator 27.0.0, SVG Export Plug-In . SVG Version: 6.00 Build 0)  -->
<svg version="1.1" id="Capa_1" xmlns="http://www.w3.org/2000/svg" xmlns:xlink="http://www.w3.org/1999/xlink" x="0px" y="0px"
	 viewBox="0 0 15 15" style="enable-background:new 0 0 15 15;" xml:space="preserve">
<style type="text/css">
	.st0{fill:#FFFFFF;}
</style>
<path class="st0" d="M7.6,3.9C5.6,3.9,4,5.5,4,7.5c0,2,1.6,3.6,3.6,3.6s3.6-1.6,3.6-3.6C11.2,5.5,9.6,3.9,7.6,3.9z M7.6,9.8
	c-1.3,0-2.3-1-2.3-2.3c0-1.3,1-2.3,2.3-2.3s2.3,1,2.3,2.3C10,8.8,8.9,9.8,7.6,9.8L7.6,9.8z M12.2,3.8c0,0.5-0.4,0.8-0.8,0.8
	c-0.5,0-0.8-0.4-0.8-0.8s0.4-0.8,0.8-0.8C11.8,2.9,12.2,3.3,12.2,3.8z M14.6,4.6c-0.1-1.1-0.3-2.1-1.1-2.9c-0.8-0.8-1.8-1.1-2.9-1.1
	c-1.2-0.1-4.6-0.1-5.8,0C3.6,0.6,2.6,0.9,1.8,1.7C1,2.5,0.7,3.5,0.7,4.6c-0.1,1.2-0.1,4.6,0,5.8c0.1,1.1,0.3,2.1,1.1,2.9
	c0.8,0.8,1.8,1.1,2.9,1.1c1.2,0.1,4.6,0.1,5.8,0c1.1-0.1,2.1-0.3,2.9-1.1c0.8-0.8,1.1-1.8,1.1-2.9C14.6,9.2,14.6,5.8,14.6,4.6
	L14.6,4.6z M13.1,11.6c-0.2,0.6-0.7,1.1-1.3,1.3c-0.9,0.4-3.1,0.3-4.1,0.3S4.4,13.3,3.5,13c-0.6-0.2-1.1-0.7-1.3-1.3
	c-0.4-0.9-0.3-3.1-0.3-4.1c0-1-0.1-3.2,0.3-4.1C2.4,2.8,2.9,2.3,3.5,2c0.9-0.4,3.1-0.3,4.1-0.3s3.2-0.1,4.1,0.3
	c0.6,0.2,1.1,0.7,1.3,1.3c0.4,0.9,0.3,3.1,0.3,4.1C13.4,8.5,13.5,10.7,13.1,11.6z"/>
</svg>
