<?xml version="1.0" encoding="utf-8"?>
<!-- Generator: Adobe Illustrator 27.0.0, SVG Export Plug-In . SVG Version: 6.00 Build 0)  -->
<svg version="1.1" id="Capa_1" xmlns="http://www.w3.org/2000/svg" xmlns:xlink="http://www.w3.org/1999/xlink" x="0px" y="0px"
	 viewBox="0 0 15 15" style="enable-background:new 0 0 15 15;" xml:space="preserve">
<style type="text/css">
	.st0{fill-rule:evenodd;clip-rule:evenodd;fill:#FFFFFF;}
</style>
<path class="st0" d="M3.4,5.1v9.4H0.2V5.1H3.4z M3.6,2.2c0,0.5-0.2,0.8-0.5,1.2S2.3,3.8,1.8,3.8h0c-0.5,0-0.9-0.2-1.3-0.5
	C0.2,3,0.1,2.6,0.1,2.2c0-0.5,0.2-0.9,0.5-1.2c0.3-0.3,0.8-0.5,1.3-0.5S2.8,0.7,3.1,1C3.4,1.3,3.6,1.7,3.6,2.2z M8.2,6.4
	C8.3,6.2,8.5,6,8.6,5.9c0.1-0.2,0.3-0.3,0.5-0.5C9.3,5.2,9.6,5.1,9.9,5c0.3-0.1,0.7-0.1,1.1-0.1c1.1,0,2,0.4,2.6,1.1
	c0.7,0.7,1,1.8,1,3.2v5.4h-3.1v-5c0-0.7-0.1-1.2-0.4-1.6c-0.3-0.4-0.7-0.6-1.2-0.6c-0.4,0-0.7,0.1-1,0.3C8.7,7.9,8.5,8.1,8.3,8.4
	C8.3,8.6,8.2,8.9,8.2,9.2v5.2H5.1c0-2.5,0-4.6,0-6.1s0-2.5,0-2.8l0-0.5h3.1V6.4z"/>
</svg>
