<?xml version="1.0" encoding="utf-8"?>
<!-- Generator: Adobe Illustrator 27.0.0, SVG Export Plug-In . SVG Version: 6.00 Build 0)  -->
<svg version="1.1" id="Capa_1" xmlns="http://www.w3.org/2000/svg" xmlns:xlink="http://www.w3.org/1999/xlink" x="0px" y="0px"
	 viewBox="0 0 16 13" style="enable-background:new 0 0 16 13;" xml:space="preserve">
<style type="text/css">
	.st0{fill-rule:evenodd;clip-rule:evenodd;fill:#FFFFFF;}
</style>
<path class="st0" d="M16,1.6c-0.4,0.6-0.9,1.2-1.6,1.7v0.4c0,2.4-0.9,4.5-2.6,6.4C10.1,12,7.8,13,5,13c-1.8,0-3.5-0.5-5-1.5
	c0.4,0,0.6,0.1,0.8,0.1c1.5,0,2.9-0.5,4.1-1.4c-0.7,0-1.3-0.2-1.9-0.7C2.4,9.1,2,8.5,1.8,7.9C2.1,7.9,2.3,8,2.4,8
	c0.2,0,0.5,0,0.9-0.1C2.5,7.7,1.9,7.3,1.4,6.7C0.9,6.1,0.6,5.4,0.6,4.6v0C1.1,4.8,1.6,5,2.1,5c-1-0.6-1.5-1.5-1.5-2.7
	c0-0.6,0.1-1.1,0.4-1.6c1.7,2.1,4,3.3,6.7,3.4c0-0.2-0.1-0.4-0.1-0.7c0-0.9,0.3-1.7,0.9-2.3C9.4,0.3,10.2,0,11.1,0
	c0.9,0,1.7,0.3,2.4,1c0.7-0.1,1.4-0.4,2.1-0.8c-0.2,0.8-0.7,1.4-1.5,1.8C14.8,2,15.4,1.8,16,1.6z"/>
</svg>
