<?xml version="1.0" encoding="utf-8"?>
<!-- Generator: Adobe Illustrator 27.0.0, SVG Export Plug-In . SVG Version: 6.00 Build 0)  -->
<svg version="1.1" id="Capa_1" xmlns="http://www.w3.org/2000/svg" xmlns:xlink="http://www.w3.org/1999/xlink" x="0px" y="0px"
	 viewBox="0 0 15 17" style="enable-background:new 0 0 15 17;" xml:space="preserve">
<style type="text/css">
	.st0{fill-rule:evenodd;clip-rule:evenodd;fill:#FFFFFF;}
</style>
<path class="st0" d="M9,11.8v2c0,0.4-0.1,0.6-0.4,0.6c-0.1,0-0.3-0.1-0.4-0.2v-2.9c0.1-0.1,0.3-0.2,0.4-0.2C8.8,11.2,9,11.4,9,11.8z
	 M12.2,11.8v0.4h-0.9v-0.4c0-0.4,0.1-0.6,0.4-0.6C12,11.2,12.2,11.4,12.2,11.8z M3,9.7h1V8.9h-3v0.9h1v5.4H3V9.7z M5.7,15.1h0.8
	v-4.7H5.7V14c-0.2,0.3-0.4,0.4-0.5,0.4c-0.1,0-0.2-0.1-0.2-0.2c0,0,0-0.1,0-0.3v-3.5H4.1v3.7c0,0.3,0,0.5,0.1,0.7
	c0.1,0.2,0.3,0.4,0.6,0.4c0.3,0,0.6-0.2,1-0.6V15.1z M9.8,13.7v-1.9c0-0.5,0-0.8-0.1-0.9c-0.1-0.4-0.3-0.5-0.7-0.5
	c-0.3,0-0.6,0.2-0.9,0.5V8.9H7.3v6.3h0.8v-0.5C8.4,15,8.7,15.2,9,15.2c0.3,0,0.6-0.2,0.7-0.5C9.8,14.5,9.8,14.2,9.8,13.7z M13,13.6
	v-0.1h-0.9c0,0.3,0,0.5,0,0.6c0,0.2-0.2,0.3-0.4,0.3c-0.3,0-0.4-0.2-0.4-0.7V13H13v-1c0-0.5-0.1-0.9-0.3-1.1c-0.2-0.3-0.6-0.5-1-0.5
	c-0.4,0-0.8,0.2-1,0.5c-0.2,0.2-0.3,0.6-0.3,1.1v1.6c0,0.5,0.1,0.9,0.3,1.1c0.2,0.3,0.6,0.5,1,0.5c0.5,0,0.8-0.2,1-0.5
	c0.1-0.2,0.2-0.3,0.2-0.5C13,14.1,13,14,13,13.6z M7.2,5V3c0-0.4-0.1-0.7-0.4-0.7C6.6,2.3,6.4,2.6,6.4,3v2c0,0.4,0.1,0.7,0.4,0.7
	C7.1,5.6,7.2,5.4,7.2,5z M14.1,12.1c0,1.5-0.1,2.6-0.2,3.3c-0.1,0.4-0.3,0.7-0.6,0.9c-0.3,0.3-0.6,0.4-1,0.4C11.1,16.9,9.4,17,7,17
	c-2.3,0-4.1-0.1-5.3-0.2c-0.4,0-0.7-0.2-1-0.4c-0.3-0.3-0.5-0.6-0.5-0.9C0.1,14.7,0,13.6,0,12.1c0-1.5,0.1-2.6,0.2-3.3
	c0.1-0.4,0.3-0.7,0.6-0.9c0.3-0.3,0.6-0.4,1-0.4C2.9,7.3,4.7,7.2,7,7.2c2.3,0,4.1,0.1,5.3,0.2c0.4,0,0.7,0.2,1,0.4
	c0.3,0.3,0.5,0.6,0.5,0.9C14,9.5,14.1,10.6,14.1,12.1z M4.6,0h1L4.4,3.8v2.6H3.5V3.8c-0.1-0.5-0.3-1.1-0.6-2C2.6,1.1,2.4,0.5,2.3,0
	h1l0.7,2.5L4.6,0z M8.1,3.2v1.7c0,0.5-0.1,0.9-0.3,1.1c-0.2,0.3-0.6,0.5-1,0.5c-0.4,0-0.8-0.2-1-0.5C5.7,5.7,5.6,5.3,5.6,4.8V3.2
	c0-0.5,0.1-0.9,0.3-1.1c0.2-0.3,0.6-0.5,1-0.5c0.4,0,0.8,0.2,1,0.5C8,2.3,8.1,2.7,8.1,3.2z M11.3,1.6v4.7h-0.9V5.8
	c-0.3,0.4-0.7,0.6-1,0.6C9.1,6.4,9,6.3,8.9,6.1C8.8,5.9,8.8,5.7,8.8,5.4V1.6h0.9v3.5c0,0.2,0,0.3,0,0.3c0,0.1,0.1,0.2,0.2,0.2
	c0.2,0,0.4-0.1,0.5-0.4V1.6H11.3z"/>
</svg>
